<?xml version="1.0" encoding="UTF-8"?>
<svg xmlns="http://www.w3.org/2000/svg" xmlns:xlink="http://www.w3.org/1999/xlink" width="25pt" height="25pt" viewBox="0 0 25 25" version="1.1">
<g id="surface1">
<path style=" stroke:none;fill-rule:nonzero;fill:rgb(0%,0%,0%);fill-opacity:1;" d="M 3.679688 4.648438 C 3.105469 4.824219 2.429688 5.46875 2.234375 6.015625 C 2.039062 6.570312 2.039062 16.867188 2.234375 17.414062 C 2.402344 17.898438 2.859375 18.417969 3.359375 18.679688 C 3.71875 18.875 3.925781 18.898438 5.59375 18.925781 L 7.421875 18.964844 L 7.421875 19.453125 C 7.421875 20.136719 7.765625 20.710938 8.328125 20.984375 C 8.742188 21.179688 8.886719 21.191406 12.703125 21.191406 C 16.335938 21.191406 16.679688 21.171875 17.050781 21.007812 C 17.625 20.742188 17.898438 20.304688 17.949219 19.570312 L 17.988281 18.964844 L 19.8125 18.925781 C 21.359375 18.898438 21.679688 18.867188 21.972656 18.710938 C 22.453125 18.457031 22.832031 18.085938 23.078125 17.625 C 23.289062 17.234375 23.289062 17.1875 23.289062 11.71875 C 23.289062 6.25 23.289062 6.203125 23.078125 5.8125 C 22.832031 5.351562 22.453125 4.980469 21.972656 4.726562 C 21.648438 4.550781 21.210938 4.539062 12.890625 4.523438 C 5.371094 4.5 4.082031 4.523438 3.679688 4.648438 Z M 13.066406 8.4375 C 13.484375 8.664062 15.507812 10.761719 15.578125 11.0625 C 15.703125 11.542969 15.125 12.101562 14.679688 11.945312 C 14.578125 11.914062 14.265625 11.660156 13.992188 11.386719 L 13.476562 10.898438 L 13.476562 12.773438 C 13.476562 14.640625 13.476562 14.65625 13.234375 14.890625 C 12.976562 15.15625 12.734375 15.195312 12.375 15.03125 C 11.972656 14.84375 11.914062 14.5625 11.914062 12.664062 L 11.914062 10.898438 L 11.375 11.425781 C 10.96875 11.828125 10.78125 11.945312 10.546875 11.945312 C 10.148438 11.945312 9.835938 11.632812 9.835938 11.21875 C 9.835938 10.957031 10.007812 10.742188 11.152344 9.609375 C 11.875 8.886719 12.539062 8.300781 12.636719 8.300781 C 12.726562 8.300781 12.921875 8.359375 13.066406 8.4375 Z M 16.503906 19.277344 C 16.503906 19.460938 16.445312 19.628906 16.386719 19.65625 C 16.132812 19.746094 9.132812 19.695312 9.015625 19.601562 C 8.945312 19.550781 8.886719 19.382812 8.886719 19.226562 L 8.886719 18.945312 L 16.503906 18.945312 Z M 16.503906 19.277344 "/>
</g>
</svg>
